<svg width="30" height="30" viewBox="0 0 30 30" fill="none" xmlns="http://www.w3.org/2000/svg">
<g id="instagram" clip-path="url(#clip0_1_1140)">
<path id="Path 16" d="M7.60735 29.8938C6.44698 29.8809 5.29751 29.6681 4.20941 29.2647C3.41484 28.971 2.69594 28.5034 2.10529 27.8962C1.4964 27.3067 1.02814 26.5876 0.735294 25.7924C0.33228 24.7043 0.11976 23.5549 0.107059 22.3947C0.0179412 20.4659 0 19.8874 0 15C0 10.1126 0.0197059 9.53618 0.106176 7.60588C0.120418 6.44611 0.333201 5.29734 0.735294 4.20941C1.02957 3.41471 1.49716 2.69553 2.10412 2.10412C2.69404 1.49577 3.41327 1.02795 4.20853 0.735294C5.29663 0.331946 6.44609 0.119126 7.60647 0.106176C9.53588 0.0179412 10.1153 0 15 0C19.8847 0 20.4638 0.0197059 22.3941 0.106176C23.5542 0.120318 24.7033 0.333102 25.7915 0.735294C26.5864 1.02833 27.3054 1.496 27.8956 2.10382C28.5036 2.69419 28.9715 3.41341 29.2647 4.20853C29.6682 5.29661 29.8811 6.44608 29.8941 7.60647C29.9824 9.53677 30.0003 10.1147 30.0003 15.0006C30.0003 19.8865 29.9824 20.4644 29.8941 22.3947C29.8801 23.5549 29.6672 24.7041 29.2647 25.7924C28.9602 26.5815 28.4939 27.2982 27.8957 27.8962C27.2975 28.4943 26.5807 28.9604 25.7915 29.2647C24.7034 29.6681 23.5539 29.8811 22.3935 29.8941C20.465 29.9824 19.8853 30.0003 14.9994 30.0003C10.1135 30.0003 9.53559 29.9832 7.60706 29.8941" fill="url(#paint0_radial_1_1140)"/>
<path id="Path 17" d="M7.60735 29.8938C6.44698 29.8809 5.29751 29.6681 4.20941 29.2647C3.41484 28.971 2.69594 28.5034 2.10529 27.8962C1.4964 27.3067 1.02814 26.5876 0.735294 25.7924C0.33228 24.7043 0.11976 23.5549 0.107059 22.3947C0.0179412 20.4659 0 19.8874 0 15C0 10.1126 0.0197059 9.53618 0.106176 7.60588C0.120418 6.44611 0.333201 5.29734 0.735294 4.20941C1.02957 3.41471 1.49716 2.69553 2.10412 2.10412C2.69404 1.49577 3.41327 1.02795 4.20853 0.735294C5.29663 0.331946 6.44609 0.119126 7.60647 0.106176C9.53588 0.0179412 10.1153 0 15 0C19.8847 0 20.4638 0.0197059 22.3941 0.106176C23.5542 0.120318 24.7033 0.333102 25.7915 0.735294C26.5864 1.02833 27.3054 1.496 27.8956 2.10382C28.5036 2.69419 28.9715 3.41341 29.2647 4.20853C29.6682 5.29661 29.8811 6.44608 29.8941 7.60647C29.9824 9.53677 30.0003 10.1147 30.0003 15.0006C30.0003 19.8865 29.9824 20.4644 29.8941 22.3947C29.8801 23.5549 29.6672 24.7041 29.2647 25.7924C28.9602 26.5815 28.4939 27.2982 27.8957 27.8962C27.2975 28.4943 26.5807 28.9604 25.7915 29.2647C24.7034 29.6681 23.5539 29.8811 22.3935 29.8941C20.465 29.9824 19.8853 30.0003 14.9994 30.0003C10.1135 30.0003 9.53559 29.9832 7.60706 29.8941" fill="url(#paint1_radial_1_1140)"/>
<path id="Path 18" d="M11.3168 15.0638C11.3169 14.3291 11.5348 13.6108 11.9431 12.9999C12.3514 12.389 12.9316 11.9129 13.6105 11.6318C14.2894 11.3506 15.0363 11.2772 15.757 11.4206C16.4776 11.564 17.1395 11.9179 17.659 12.4375C18.1785 12.9571 18.5323 13.6192 18.6755 14.3398C18.8188 15.0605 18.7451 15.8075 18.4638 16.4863C18.1826 17.1651 17.7063 17.7452 17.0953 18.1533C16.4843 18.5615 15.766 18.7792 15.0312 18.7791C14.046 18.779 13.1012 18.3874 12.4046 17.6907C11.708 16.994 11.3167 16.049 11.3168 15.0638ZM9.30829 15.0638C9.30829 16.1957 9.64393 17.3022 10.2728 18.2433C10.9016 19.1845 11.7954 19.918 12.8412 20.3511C13.8869 20.7843 15.0376 20.8976 16.1477 20.6768C17.2579 20.456 18.2776 19.9109 19.078 19.1105C19.8783 18.3102 20.4234 17.2905 20.6442 16.1803C20.865 15.0702 20.7517 13.9195 20.3185 12.8737C19.8854 11.828 19.1519 10.9342 18.2107 10.3054C17.2696 9.67652 16.1631 9.34088 15.0312 9.34088C14.2797 9.34084 13.5355 9.48884 12.8411 9.77643C12.1468 10.064 11.5158 10.4856 10.9844 11.017C10.453 11.5484 10.0314 12.1793 9.74385 12.8737C9.45626 13.5681 9.30825 14.3123 9.30829 15.0638ZM19.6433 9.11411C19.6432 9.37862 19.7215 9.63722 19.8684 9.85721C20.0152 10.0772 20.224 10.2487 20.4683 10.35C20.7126 10.4514 20.9815 10.478 21.241 10.4265C21.5004 10.375 21.7388 10.2477 21.9259 10.0608C22.113 9.87382 22.2405 9.63559 22.2922 9.37619C22.3439 9.11679 22.3175 8.84788 22.2164 8.60346C22.1153 8.35905 21.944 8.15011 21.7241 8.00307C21.5043 7.85602 21.2457 7.77747 20.9812 7.77735C20.6267 7.77751 20.2867 7.91838 20.036 8.16902C19.7852 8.41966 19.6442 8.75957 19.6439 9.11411M10.5292 24.1359C9.82244 24.1281 9.12232 23.9988 8.45946 23.7535C7.97875 23.5682 7.54216 23.2844 7.17779 22.9201C6.81343 22.5559 6.52936 22.1195 6.34387 21.6388C6.09851 20.976 5.96917 20.2759 5.96152 19.5691C5.90741 18.3944 5.89682 18.0415 5.89682 15.0653C5.89682 12.0891 5.90858 11.7371 5.96152 10.5612C5.9701 9.85453 6.09941 9.15454 6.34387 8.49146C6.52915 8.0106 6.81313 7.57391 7.17752 7.20952C7.5419 6.84513 7.9786 6.56115 8.45946 6.37588C9.12229 6.13052 9.82243 6.00118 10.5292 5.99353C11.7039 5.93941 12.0568 5.92882 15.0318 5.92882C18.0068 5.92882 18.3601 5.9403 19.5359 5.99383C20.2426 6.0024 20.9426 6.13171 21.6056 6.37617C22.0865 6.56146 22.5232 6.84545 22.8876 7.20983C23.252 7.57422 23.5359 8.01091 23.7212 8.49176C23.9666 9.15459 24.0959 9.85473 24.1036 10.5615C24.1577 11.7379 24.1683 12.0891 24.1683 15.0656C24.1683 18.0421 24.1574 18.3938 24.1036 19.5697C24.0953 20.2764 23.966 20.9764 23.7212 21.6394C23.5357 22.12 23.2517 22.5565 22.8873 22.9207C22.5229 23.2849 22.0864 23.5688 21.6056 23.7541C20.9428 23.9995 20.2427 24.1288 19.5359 24.1365C18.3612 24.1906 18.0083 24.2012 15.0318 24.2012C12.0553 24.2012 11.7036 24.1903 10.5292 24.1365M10.4368 3.98676C9.51206 4.00495 8.5971 4.17998 7.73093 4.50441C6.99049 4.79069 6.31805 5.22854 5.75671 5.78989C5.19536 6.35123 4.75751 7.02367 4.47123 7.76411C4.14684 8.6303 3.97181 9.54525 3.95358 10.47C3.89858 11.6582 3.88623 12.0382 3.88623 15.065C3.88623 18.0918 3.89888 18.4715 3.95358 19.66C3.97181 20.5848 4.14683 21.4997 4.47123 22.3659C4.75753 23.1063 5.19538 23.7787 5.75672 24.3401C6.31806 24.9014 6.9905 25.3393 7.73093 25.6256C8.59714 25.9499 9.51208 26.1249 10.4368 26.1432C11.6256 26.1974 12.0051 26.2106 15.0318 26.2106C18.0586 26.2106 18.4383 26.1979 19.6268 26.1432C20.5516 26.125 21.4665 25.9499 22.3327 25.6256C23.0731 25.3393 23.7456 24.9014 24.3069 24.3401C24.8682 23.7787 25.3061 23.1063 25.5924 22.3659C25.9172 21.4998 26.0923 20.5848 26.1101 19.66C26.1642 18.4709 26.1765 18.0918 26.1765 15.065C26.1765 12.0382 26.1639 11.6585 26.1101 10.47C26.0919 9.54525 25.9168 8.63028 25.5924 7.76411C25.3061 7.02382 24.8684 6.35147 24.3072 5.79015C23.746 5.22882 23.0738 4.79089 22.3336 4.50441C21.4675 4.17977 20.5525 4.00473 19.6277 3.98676C18.4392 3.93235 18.0595 3.91941 15.0333 3.91941C12.0071 3.91941 11.6265 3.93206 10.4374 3.98676" fill="white"/>
</g>
<defs>
<radialGradient id="paint0_radial_1_1140" cx="0" cy="0" r="1" gradientUnits="userSpaceOnUse" gradientTransform="translate(1.94147 29.3429) scale(38.0888)">
<stop offset="0.09" stop-color="#FA8F21"/>
<stop offset="0.78" stop-color="#D82D7E"/>
</radialGradient>
<radialGradient id="paint1_radial_1_1140" cx="0" cy="0" r="1" gradientUnits="userSpaceOnUse" gradientTransform="translate(20.78 28.3794) scale(33.5185)">
<stop offset="0.64" stop-color="#8C3AAA" stop-opacity="0"/>
<stop offset="1" stop-color="#8C3AAA"/>
</radialGradient>
<clipPath id="clip0_1_1140">
<rect width="30" height="30" fill="white"/>
</clipPath>
</defs>
</svg>
