<svg width="30" height="30" viewBox="0 0 30 30" fill="none" xmlns="http://www.w3.org/2000/svg">
<g id="Linkedin" clip-path="url(#clip0_1_1147)">
<g id="Layer 2">
<g id="Layer 1">
<path id="Vector" d="M23.2664 0H6.73363C3.01475 0 0 3.01475 0 6.73363V23.2664C0 26.9852 3.01475 30 6.73363 30H23.2664C26.9852 30 30 26.9852 30 23.2664V6.73363C30 3.01475 26.9852 0 23.2664 0Z" fill="#0B86CA"/>
<path id="Vector_2" d="M8.31322 12.4697H11.4306V22.5286H8.31322V12.4697ZM9.90311 7.47142C10.2603 7.47143 10.6094 7.57721 10.9065 7.77543C11.2037 7.97366 11.4354 8.25543 11.5726 8.58521C11.7097 8.915 11.7461 9.27801 11.6772 9.62846C11.6083 9.97892 11.4371 10.3011 11.1853 10.5544C10.9334 10.8077 10.6122 10.9807 10.2622 11.0516C9.91213 11.1225 9.54891 11.0882 9.21834 10.953C8.88778 10.8177 8.60468 10.5876 8.40476 10.2916C8.20484 9.99563 8.09705 9.64708 8.095 9.28992C8.09363 9.0516 8.13939 8.81536 8.22964 8.59479C8.31989 8.37422 8.45286 8.17367 8.62089 8.00467C8.78893 7.83567 8.98872 7.70156 9.20876 7.61004C9.42881 7.51853 9.66478 7.47142 9.90311 7.47142Z" fill="white"/>
<path id="Vector_3" d="M13.4257 12.4697H16.4288V13.8414C16.7294 13.3283 17.1637 12.9066 17.6853 12.6211C18.2069 12.3356 18.7962 12.197 19.3903 12.2203C22.5078 12.2203 23.1416 14.2986 23.1416 17.0107V22.5286H20.0242V17.6654C20.0242 16.5016 20.0242 14.9948 18.4032 14.9948C16.7821 14.9948 16.5327 16.2626 16.5327 17.5719V22.5494H13.4153L13.4257 12.4697Z" fill="white"/>
</g>
</g>
</g>
<defs>
<clipPath id="clip0_1_1147">
<rect width="30" height="30" fill="white"/>
</clipPath>
</defs>
</svg>
