<svg width="30" height="30" viewBox="0 0 30 30" fill="none" xmlns="http://www.w3.org/2000/svg">
<g id="Whatsapp" clip-path="url(#clip0_1_1144)">
<path id="Vector" d="M29.9984 22.4166C29.9984 22.5808 29.9934 22.9371 29.9835 23.2123C29.9593 23.8856 29.906 24.7544 29.8253 25.1503C29.7039 25.7452 29.5208 26.3067 29.282 26.7741C28.9995 27.3269 28.6392 27.8222 28.211 28.2496C27.7837 28.6761 27.2889 29.0351 26.7369 29.3164C26.2671 29.5559 25.7021 29.7391 25.1038 29.8599C24.7118 29.939 23.8495 29.9914 23.1805 30.0151C22.905 30.025 22.5487 30.0299 22.3851 30.0299L7.61283 30.0276C7.44856 30.0276 7.09237 30.0225 6.81719 30.0127C6.14386 29.9885 5.27503 29.9351 4.87914 29.8545C4.28424 29.7331 3.7227 29.55 3.25536 29.3112C2.70247 29.0287 2.20727 28.6683 1.77985 28.2401C1.35329 27.8129 0.994346 27.3181 0.713008 26.7661C0.473535 26.2963 0.290312 25.7312 0.169521 25.133C0.0904199 24.741 0.0380664 23.8787 0.014248 23.2097C0.00446289 22.9342 -0.000488281 22.5779 -0.000488281 22.4143L0.00185547 7.64201C0.00185547 7.47774 0.00686523 7.12152 0.0167383 6.84633C0.0409082 6.173 0.0942578 5.30417 0.174971 4.90831C0.296289 4.31341 0.479395 3.75188 0.718193 3.28451C1.0007 2.73164 1.36108 2.23641 1.78926 1.809C2.21652 1.38246 2.71129 1.02349 3.26333 0.742123C3.73316 0.502709 4.29821 0.319486 4.89648 0.198695C5.28839 0.119564 6.15074 0.0672107 6.81977 0.0434216C7.09521 0.0336072 7.45155 0.028656 7.61515 0.028656L22.3874 0.0310291C22.5517 0.0310291 22.9079 0.0360388 23.1831 0.0459119C23.8564 0.0700818 24.7252 0.123431 25.1211 0.204144C25.716 0.325463 26.2775 0.508568 26.7449 0.747367C27.2978 1.02988 27.793 1.39026 28.2204 1.81843C28.6469 2.2457 29.0059 2.74043 29.2872 3.2925C29.5267 3.76234 29.7099 4.32736 29.8307 4.92563C29.9098 5.31756 29.9622 6.17989 29.986 6.84894C29.9958 7.12439 30.0008 7.4807 30.0008 7.64435L29.9984 22.4166Z" fill="url(#paint0_linear_1_1144)"/>
<path id="Vector_2" d="M22.9484 7.12635C20.9173 5.09353 18.2161 3.97345 15.3382 3.97231C9.40843 3.97231 4.58232 8.79656 4.57995 14.7264C4.57919 16.6218 5.07457 18.4721 6.016 20.103L4.48975 25.6761L10.1928 24.1806C11.7642 25.0373 13.5333 25.4889 15.3339 25.4896H15.3383C21.2675 25.4896 26.094 20.6648 26.0964 14.7349C26.0976 11.8613 24.9796 9.15917 22.9484 7.12635ZM15.3383 23.6733H15.3347C13.7302 23.6726 12.1564 23.2417 10.7836 22.4273L10.457 22.2336L7.07273 23.1211L7.97607 19.8225L7.76341 19.4843C6.86833 18.0611 6.3956 16.416 6.3963 14.7271C6.39823 9.79849 10.4095 5.78871 15.3418 5.78871C17.7301 5.78962 19.9752 6.72067 21.6634 8.41025C23.3517 10.0998 24.2809 12.3458 24.28 14.7342C24.2781 19.6632 20.2668 23.6733 15.3383 23.6733ZM20.2431 16.9785C19.9742 16.844 18.6526 16.1938 18.4062 16.1042C18.1598 16.0145 17.9807 15.9696 17.8014 16.2387C17.6222 16.5077 17.1071 17.113 16.9502 17.2923C16.7934 17.4717 16.6366 17.4941 16.3678 17.3596C16.099 17.2251 15.2329 16.9413 14.2061 16.0258C13.4071 15.3134 12.8675 14.4333 12.7107 14.1642C12.5539 13.8952 12.6941 13.7498 12.8286 13.6158C12.9495 13.4954 13.0974 13.3019 13.2318 13.145C13.3662 12.9881 13.4111 12.876 13.5006 12.6967C13.5903 12.5173 13.5454 12.3604 13.4782 12.2259C13.4111 12.0913 12.8734 10.7687 12.6494 10.2306C12.4313 9.70661 12.2096 9.77751 12.0446 9.76928C11.888 9.76149 11.7086 9.75984 11.5294 9.75984C11.3502 9.75984 11.059 9.82708 10.8126 10.0961C10.5662 10.3651 9.87179 11.0153 9.87179 12.3379C9.87179 13.6606 10.835 14.9384 10.9694 15.1178C11.1038 15.2971 12.8649 18.0115 15.5614 19.1754C16.2028 19.4523 16.7035 19.6177 17.0939 19.7415C17.7378 19.946 18.3238 19.9172 18.787 19.848C19.3035 19.7709 20.3774 19.1979 20.6014 18.5702C20.8255 17.9425 20.8254 17.4045 20.7582 17.2924C20.691 17.1803 20.5119 17.113 20.2431 16.9785Z" fill="white"/>
</g>
<defs>
<linearGradient id="paint0_linear_1_1144" x1="15.0001" y1="0.028656" x2="15.0001" y2="30.03" gradientUnits="userSpaceOnUse">
<stop stop-color="#61FD7D"/>
<stop offset="1" stop-color="#2BB826"/>
</linearGradient>
<clipPath id="clip0_1_1144">
<rect width="30" height="30" fill="white"/>
</clipPath>
</defs>
</svg>
